HIERARCHY
ROOT Hips
{
	OFFSET 0.00000 0.00000 0.00000
	CHANNELS 6 Xposition Yposition Zposition Yrotation Zrotation Xrotation 
	JOINT Lumbar
	{
		OFFSET 0 0 0
		CHANNELS 3 Zrotation Xrotation Yrotation
		JOINT Neck
		{
			OFFSET 0.00 0.2701 0.00
			CHANNELS 3 Zrotation Xrotation Yrotation
			End Site
			{
				OFFSET 0.00 0.1379 0.00
			}
		}
		JOINT RightShoulder
		{
			OFFSET 0.0119 0.2289 0.1181
			CHANNELS 3 Zrotation Xrotation Yrotation
			JOINT RightElbow
			{
				OFFSET 0.00 -0.1475 0.00
				CHANNELS 2 Zrotation Yrotation
				JOINT RightWrist
				{
					OFFSET 0.00 -0.1605 0.00
					CHANNELS 2 Zrotation Xrotation
					End Site
					{
						OFFSET 0.0040 -0.1068 0.0006
					}
				}
			}
		}
		JOINT LeftShoulder
		{
			OFFSET 0.0119 0.2289 -0.1181
			CHANNELS 3 Zrotation Xrotation Yrotation
			JOINT LeftElbow
			{
				OFFSET 0.00 -0.1475 0.00
				CHANNELS 2 Zrotation Yrotation
				JOINT LeftWrist
				{
					OFFSET 0.00 -0.1605 0.00
					CHANNELS 2 Zrotation Xrotation
					End Site
					{
						OFFSET 0.0040 -0.1068 -0.0006
					}
				}
			}
		}
	}
	JOINT RightHip
	{
		OFFSET 0.0316 -0.0424 0.0458
		CHANNELS 3 Zrotation Xrotation Yrotation
		JOINT RightKnee
		{
			OFFSET 0.00 -0.2438 0.00
			CHANNELS 1 Zrotation
			JOINT RightAnkle
			{
				OFFSET 0.00 -0.2449 0.00
				CHANNELS 3 Zrotation Xrotation Yrotation
				End Site
				{
					OFFSET 0.1237 -0.0542 0.0051
				}
			}
		}
	}
	JOINT LeftHip
	{
		OFFSET 0.0316 -0.0424 -0.0458
		CHANNELS 3 Zrotation Xrotation Yrotation
		JOINT LeftKnee
		{
			OFFSET 0.00 -0.2438 0.00
			CHANNELS 1 Zrotation
			JOINT LeftAnkle
			{
				OFFSET 0.00 -0.2449 0.00
				CHANNELS 3 Zrotation Xrotation Yrotation
				End Site
				{
					OFFSET 0.1237 -0.0542 -0.0051
				}
			}
		}
	}
}
MOTION
Frames: 22
Frame Time: 0.02
-0.00019 -6e-05 -0.00033 22.64615 -30.41246 -5.06305 48.14899 1.36914 -5.953 3.44603 0.28858 -0.99285 -22.3992 -9.09147 3.67111 37.24253 96.2163 9.36052 1.54127 -25.92291 5.9193 3.16859 47.25402 -168.2124 36.60684 -12.81246 43.51207 0.46231 -8.60893 -19.25254 -6.02817 -2.39503 -3.36754 47.24956 5.65687 15.00417 -24.97499 -6.51685 0.81407 2.66818
-6e-05 -5e-05 -1e-05 22.64144 -30.34918 -4.9907 48.19858 1.39352 -6.17442 3.24341 0.0483 -0.99504 -22.68533 -9.06436 3.19341 37.14253 96.17688 9.3093 1.5498 -25.78403 6.54864 1.84797 47.1964 -161.72104 34.38614 -11.7253 43.43631 0.38898 -8.93474 -19.25208 -6.02631 -2.34994 -3.34618 47.19631 5.54588 14.5491 -24.97355 -6.50198 0.87057 2.69093
7e-05 -3e-05 0.00031 22.63674 -30.28606 -4.91846 48.2481 1.41788 -6.39542 3.04118 -0.19163 -0.99721 -22.97097 -9.03722 2.71581 37.0424 96.13731 9.25794 1.55833 -25.64555 7.17606 0.53175 47.13902 -155.24961 32.17224 -10.6415 43.36077 0.31587 -9.25944 -19.25163 -6.02445 -2.30498 -3.32488 47.14319 5.43518 14.09529 -24.97211 -6.48716 0.92691 2.71363
0.0002 -1e-05 0.00063 22.63205 -30.22297 -4.84631 48.29756 1.44218 -6.6162 2.83914 -0.43122 -0.99939 -23.25629 -9.01016 2.23942 36.94265 96.09797 9.20683 1.56683 -25.50708 7.80346 -0.78476 47.08157 -148.77824 29.95836 -9.5577 43.28524 0.24277 -9.58423 -19.25117 -6.02259 -2.26003 -3.30358 47.0901 5.32454 13.64163 -24.97067 -6.47234 0.98324 2.73631
0.00033 0 0.00095 22.62735 -30.15974 -4.7741 48.34703 1.46651 -6.83732 2.63681 -0.67102 -1.00157 -23.54194 -8.98321 1.7633 36.84318 96.05887 9.15598 1.57534 -25.36825 8.4328 -2.10576 47.02389 -142.28693 27.73771 -8.47055 43.20951 0.16945 -9.91015 -19.25069 -6.02073 -2.21494 -3.28221 47.0369 5.2136 13.1867 -24.96924 -6.45746 1.03973 2.75906
0.00047 2e-05 0.00127 22.62267 -30.09683 -4.70179 48.39666 1.49093 -7.05805 2.43481 -0.91124 -1.00375 -23.82755 -8.95571 1.28253 36.74165 96.01832 9.10353 1.58391 -25.23053 9.05614 -3.41184 46.96717 -135.85768 25.53812 -7.39383 43.13436 0.09676 -10.2323 -19.25031 -6.01887 -2.17027 -3.26105 46.98395 5.10341 12.73524 -24.96777 -6.44274 1.09575 2.78164
0.0006 4e-05 0.00158 22.61793 -30.03335 -4.62977 48.44594 1.51511 -7.27928 2.23236 -1.15026 -1.00593 -24.11292 -8.92926 0.81206 36.64444 95.98074 9.05437 1.59234 -25.09066 9.6908 -4.74649 46.9085 -129.31104 23.29869 -6.29739 43.05813 0.02291 -10.56163 -19.24972 -6.01702 -2.1248 -3.23951 46.93057 4.99189 12.27749 -24.96639 -6.42774 1.15264 2.80452
0.00073 6e-05 0.00191 22.6133 -29.97038 -4.55745 48.49551 1.53957 -7.50013 2.03032 -1.39056 -1.00811 -24.39851 -8.902 0.33132 36.54311 95.94041 9.00218 1.6009 -24.95291 10.31515 -6.05485 46.85177 -122.87191 21.09579 -5.219 42.98287 -0.04992 -10.88442 -19.24935 -6.01516 -2.08007 -3.21831 46.87756 4.8815 11.82518 -24.96492 -6.41299 1.20877 2.82715
0.00086 7e-05 0.00223 22.60856 -29.90809 -4.48484 48.54557 1.56415 -7.72035 1.82868 -1.63191 -1.01028 -24.6846 -8.87306 -0.15936 36.43719 95.89669 8.94618 1.60964 -24.81712 10.92664 -7.33131 46.79683 -116.56443 18.93745 -4.16277 42.90889 -0.12134 -11.19902 -19.24912 -6.01329 -2.03625 -3.19756 46.82505 4.77283 11.38074 -24.96334 -6.39857 1.26383 2.8494
0.00099 9e-05 0.00253 22.60375 -29.84205 -4.41414 48.59326 1.58737 -7.94368 1.62445 -1.86569 -1.01248 -24.96853 -8.85171 -0.58504 36.35901 95.87241 8.91178 1.61738 -24.66816 11.61138 -8.79208 46.72983 -109.49999 16.52236 -2.97927 42.8278 -0.2004 -11.56019 -19.24773 -6.01148 -1.98719 -3.17429 46.76982 4.65525 10.89469 -24.96239 -6.3823 1.32462 2.8736
0.00112 0.0001 0.00288 22.59955 -29.78382 -4.33926 48.64566 1.61387 -8.16076 1.42591 -2.11637 -1.01465 -25.25648 -8.81569 -1.15262 36.22153 95.80715 8.83204 1.62723 -24.54821 12.14199 -9.86344 46.6894 -104.03278 14.64938 -2.06423 42.76156 -0.26363 -11.82342 -19.24901 -6.00953 -1.94918 -3.15631 46.72025 4.55586 10.49411 -24.96014 -6.36991 1.37359 2.89382
0.00125 0.0001 0.00336 22.59335 -29.74812 -4.25382 48.71331 1.64634 -8.35748 1.24119 -2.40656 -1.01664 -25.56004 -8.72903 -2.07509 35.92652 95.62869 8.62493 1.64303 -24.49884 12.24225 -9.85926 46.71355 -102.98887 14.27485 -1.89327 42.73766 -0.28076 -11.81303 -19.25586 -6.00737 -1.94198 -3.15313 46.68701 4.51208 10.35054 -24.95418 -6.36856 1.38739 2.90194
0.00138 8e-05 0.0039 22.58853 -29.72011 -4.16397 48.78512 1.68282 -8.54808 1.06264 -2.71508 -1.01869 -25.86669 -8.63036 -3.14654 35.57152 95.40971 8.37299 1.66099 -24.48047 12.18903 -9.46459 46.76593 -103.54156 14.44274 -1.99054 42.72839 -0.28259 -11.70531 -19.26571 -6.00504 -1.94578 -3.15519 46.65941 4.48564 10.28948 -24.94707 -6.37105 1.38974 2.90624
0.00152 7e-05 0.00441 22.58542 -29.68781 -4.07554 48.8537 1.71924 -8.74417 0.88228 -3.01962 -1.02069 -26.16907 -8.54294 -4.17224 35.23993 95.20913 8.14331 1.67777 -24.45356 12.21101 -9.25415 46.81084 -103.33682 14.35522 -1.96015 42.71134 -0.29307 -11.64522 -19.27536 -6.00268 -1.94426 -3.15468 46.62859 4.44741 10.17493 -24.94046 -6.3715 1.39918 2.9131
0.00165 5e-05 0.00492 22.57218 -29.65869 -3.98968 48.92854 1.74758 -8.9307 0.69721 -3.30553 -1.0225 -26.48399 -8.42776 -5.10521 34.92236 95.00651 7.90496 1.6951 -24.4025 12.21009 -9.01749 46.83319 -103.26848 14.30605 -1.95439 42.69898 -0.29597 -11.57021 -19.28019 -6.00076 -1.94419 -3.15501 46.60014 4.42522 10.12459 -24.93349 -6.37313 1.40093 2.91661
0.00179 4e-05 0.00543 22.58067 -29.62498 -3.89729 48.99056 1.79451 -9.13334 0.52407 -3.63499 -1.0251 -26.77295 -8.37168 -6.26704 34.56406 94.80105 7.67483 1.71217 -24.41009 12.21997 -8.73893 46.90923 -103.29608 14.30598 -1.96122 42.68045 -0.31151 -11.5037 -19.29567 -5.99791 -1.94362 -3.15479 46.56859 4.37434 9.9644 -24.92754 -6.3733 1.41561 2.92601
0.00201 5e-05 0.00595 22.64663 -29.57484 -3.78923 49.02219 1.88489 -9.40131 0.37673 -4.07616 -1.02676 -26.99313 -8.44598 -8.0246 34.0851 94.58417 7.47404 1.72593 -24.56338 12.30188 -8.47481 47.12613 -103.17862 14.30304 -1.93368 42.64006 -0.36152 -11.48026 -19.34058 -5.99236 -1.93974 -3.15207 46.52404 4.23502 9.4426 -24.92226 -6.36783 1.47219 2.95439
0.00223 7e-05 0.00647 22.73502 -29.52006 -3.67472 49.0393 1.99516 -9.68161 0.2422 -4.5609 -1.02978 -27.18553 -8.58656 -10.00998 33.57159 94.37383 7.28545 1.74062 -24.7761 12.39899 -8.17531 47.39592 -103.10574 14.33147 -1.91018 42.59306 -0.42536 -11.46932 -19.39593 -5.98592 -1.93488 -3.14856 46.47758 4.06728 8.81404 -24.92001 -6.36089 1.5416 2.98854
0.00244 8e-05 0.00697 22.81433 -29.46876 -3.56206 49.05951 2.10082 -9.94422 0.10551 -5.02879 -1.03428 -27.38937 -8.72056 -11.88743 33.08883 94.16242 7.09219 1.7551 -24.96748 12.48631 -7.86993 47.64218 -103.02452 14.34937 -1.88695 42.55004 -0.48586 -11.45575 -19.44604 -5.98 -1.92988 -3.14515 46.43291 3.91566 8.25993 -24.91605 -6.35507 1.60292 3.01889
0.00271 9e-05 0.00753 22.88815 -29.41239 -3.45297 49.09604 2.18781 -10.25968 -0.04636 -5.48636 -1.03006 -27.60191 -8.75589 -13.77746 32.54014 93.91913 6.88733 1.76508 -25.13661 12.581 -7.64514 47.8884 -102.94849 14.37131 -1.86391 42.50393 -0.53422 -11.42683 -19.49847 -5.97357 -1.92749 -3.1429 46.38107 3.75058 7.60113 -24.90723 -6.34749 1.67328 3.05399
0.00285 0.00011 0.00797 22.97977 -29.3648 -3.33603 49.09332 2.31849 -10.46551 -0.16375 -5.97368 -1.04417 -27.78517 -9.01118 -15.70744 32.12174 93.77247 6.71807 1.78923 -25.36505 12.66523 -7.24727 48.14551 -102.85174 14.38416 -1.83829 42.46187 -0.6103 -11.43294 -19.54835 -5.968 -1.9196 -3.13813 46.348 3.60722 7.13156 -24.91708 -6.34316 1.7281 3.08069
0.00265 0.00014 0.00807 23.1065 -29.34744 -3.19007 49.00039 2.56361 -10.38761 -0.1878 -6.54762 -1.10989 -27.93374 -9.87359 -17.56322 32.06676 93.62983 6.56913 1.81084 -25.74978 12.72399 -6.39972 48.43097 -102.67383 14.36888 -1.80002 42.4376 -0.76864 -11.54367 -19.59005 -5.96514 -1.89411 -3.12513 46.33051 3.52478 7.23156 -24.91017 -6.34823 1.73619 3.08223
